<svg xmlns="http://www.w3.org/2000/svg" width="192" height="192" viewBox="0 0 192 192">
  <!-- Background circle with agility theme color -->
  <circle cx="96" cy="96" r="90" fill="#228be6" stroke="#ffffff" stroke-width="12" />
  
  <!-- Dog icon, scaled and centered -->
  <g transform="translate(24, 24) scale(6)" fill="none" stroke="#ffffff" stroke-width="2" stroke-linecap="round" stroke-linejoin="round">
    <!-- Dog head top -->
    <path d="M11 5h2" />
    <!-- Main body outline -->
    <path d="M19 12c-.667 5.333 -2.333 8 -5 8h-4c-2.667 0 -4.333 -2.667 -5 -8" />
    <!-- Mouth -->
    <path d="M11 16c0 .667 .333 1 1 1s1 -.333 1 -1h-2z" />
    <!-- Nose -->
    <path d="M12 18v2" />
    <!-- Eyes -->
    <path d="M10 11v.01" />
    <path d="M14 11v.01" />
    <!-- Left ear -->
    <path d="M5 4l6 .97l-6.238 6.688a1.021 1.021 0 0 1 -1.41 .111a.953 .953 0 0 1 -.327 -.954l1.975 -6.815z" />
    <!-- Right ear -->
    <path d="M19 4l-6 .97l6.238 6.688c.358 .408 .989 .458 1.41 .111a.953 .953 0 0 0 .327 -.954l-1.975 -6.815z" />
  </g>
</svg>